# xmcd
#
# Track frame offsets: 
#        150
#        16306
#        37340
#        55116
#        70847
#        83412
#        98177
#        114678
#        131632
#        159064
#        180934
#        196235
#        211740
#        226550
#        255591
#        274852
#        294592
#        307646
#
# Disc length: 4351 seconds
#
# Revision: 0
# Processed by: cddbd v1.5.2PL0 Copyright (c) Steve Scherf et al.
# Submitted via: ExactAudioCopy v1.1
#
DISCID=e110fd12
DTITLE=Olšava - A v tom Brodě, při Olšavě
DYEAR=2005
DGENRE=Country
TTITLE0=A v tom Brodě, při Olšavě
TTITLE1=A v tom Brodečku na rynečku
TTITLE2=Ti Uherští Brodští páni
TTITLE3=Sedlecké z předměstí
TTITLE4=Pri téj Brodskej Bráně
TTITLE5=Naši páni z toho města
TTITLE6=Ty Uherské Brodské zvony
TTITLE7=V Brodě u kostela
TTITLE8=Když nás odváďali v tom Uherském Brodě
TTITLE9=Zachodí slunéčko, Pozlovští mládenci
TTITLE10=Hore Brodem
TTITLE11=Ej, Brode Brodečku
TTITLE12=Kdo to na mňa volá, Ořechovští páni
TTITLE13=Kdes býl, Janku
TTITLE14=U muziky v Brodě
TTITLE15=Vezení peřin
TTITLE16=Maršovský stárek
TTITLE17=V Brodě na rynečku stojí vraný kůň
EXTD=
EXTT0=
EXTT1=
EXTT2=
EXTT3=
EXTT4=
EXTT5=
EXTT6=
EXTT7=
EXTT8=
EXTT9=
EXTT10=
EXTT11=
EXTT12=
EXTT13=
EXTT14=
EXTT15=
EXTT16=
EXTT17=
PLAYORDER=
